*%FSLAX53Y53*%
*%MOMM*%
G01*
D16*
X234645Y205461D02*
Y219685D01*
X232105D02*
Y199111D01*
X239725Y205461D02*
Y219685D01*
X237185D02*
Y205461D01*
X244805D02*
Y219685D01*
X242265D02*
Y205461D01*
X249885Y210668D02*
Y219685D01*
X247345D02*
Y205461D01*
X270205Y215240D02*
Y219177D01*
X270713Y219685D01*
X277825D02*
Y215240D01*
X279095Y213970D01*
X272745Y219685D02*
X270713D01*
D17*
X230835Y197841D02*
Y196571D01*
Y220955D02*
X232486Y222606D01*
X232105Y199111D02*
X230835Y197841D01*
X235915Y198095D02*
Y204191D01*
X233375D02*
Y198095D01*
Y204191D02*
X234645Y205461D01*
X235915Y204191D02*
X237185Y205461D01*
X240995Y204191D02*
Y198095D01*
X238455D02*
Y204191D01*
X239725Y205461D01*
X240995Y204191D02*
X242265Y205461D01*
X246075Y204191D02*
Y198095D01*
X243535D02*
Y204191D01*
X244805Y205461D01*
X246075Y204191D02*
X247345Y205461D01*
X248615Y209398D02*
Y198095D01*
Y209398D02*
X249885Y210668D01*
X255600Y220574D02*
Y221463D01*
X256235Y220955D02*
X254584Y222606D01*
X255473Y222098D02*
X255981Y221590D01*
X261823Y221844D02*
X262077Y222098D01*
X262966Y222606D02*
X261315Y220955D01*
X268935Y213970D02*
X270205Y215240D01*
X279095Y220955D02*
Y221082D01*
X277571Y222606D01*
X288747Y186284D02*
Y185522D01*
X286207Y182982D01*
X285191D01*
X261823Y221844D02*
X255600D01*
X255473Y222098D02*
X262077D01*
X261569Y221590D02*
X255981D01*
X266395Y222606D02*
X277571D01*
X266395D02*
X254584D01*
X232486D01*
D20*
X229311Y185395D02*
D03*
X220802Y216002D02*
D03*
X286207Y185522D02*
D03*
Y220574D02*
D03*
D23*
X279095Y220955D02*
X278206Y221844D01*
X276555Y220955D02*
X277825Y219685D01*
X261061Y200635D02*
X263855Y197841D01*
X274015Y191999D02*
X275412Y190602D01*
X229946Y194158D02*
X228549Y195555D01*
X230835Y214097D02*
X226771Y218161D01*
X263855Y191237D02*
X265633Y189459D01*
X273507D02*
X276555Y186411D01*
X281635Y214732D02*
X279095Y217272D01*
X224485Y184252D02*
X223215Y185522D01*
X222326Y187173D02*
X220294Y189205D01*
X220040Y190983D02*
X222326Y188697D01*
X223215Y188824D02*
X219659Y192380D01*
X220548Y186411D02*
X222199Y184760D01*
X221310D02*
X220421Y185649D01*
Y187427D02*
X222453Y185395D01*
X223215Y185649D02*
X221691Y187173D01*
X219659Y189205D01*
X285699Y222860D02*
X288366Y220193D01*
X221564Y183363D02*
X219659Y185268D01*
X284937Y222860D02*
X286969Y220828D01*
X261315Y213462D02*
X258775Y216002D01*
X261315D02*
X263855Y213462D01*
X272745Y219685D02*
X274015Y220955D01*
X225755Y203683D02*
X223723Y201651D01*
X253695Y218415D02*
X256235Y220955D01*
X251155D02*
X249885Y219685D01*
X248615Y220955D02*
X247345Y219685D01*
X246075Y220955D02*
X244805Y219685D01*
X240995Y220955D02*
X239725Y219685D01*
X242265D02*
X243535Y220955D01*
X238455D02*
X237185Y219685D01*
X235915Y220955D02*
X234645Y219685D01*
X233375Y220955D02*
X232105Y219685D01*
X223723Y198984D02*
X221691Y196952D01*
X266395Y197841D02*
X273761Y205207D01*
X223723Y204445D02*
X221691Y202413D01*
X223723Y207747D02*
X224739Y208763D01*
X225374D02*
X226771Y210160D01*
X268935Y197841D02*
X273253Y202159D01*
X272745Y199111D02*
X271475Y197841D01*
X262585Y206731D02*
X266395Y210541D01*
X230835Y200000D02*
X228549Y197714D01*
X221691Y208255D02*
X224231Y210795D01*
X262839Y203683D02*
X267411Y208255D01*
X279349D02*
X281635Y210541D01*
X228676Y186411D02*
X226390Y184125D01*
X286969Y184633D02*
X288366Y186030D01*
X222707Y222860D02*
X221818Y221971D01*
Y211684D02*
X219659Y209525D01*
Y220193D02*
X222326Y222860D01*
X230835Y221590D02*
X232105Y222860D01*
X220421Y187427D02*
Y185649D01*
X221183Y219304D02*
Y221082D01*
Y220066D02*
Y211811D01*
X220294Y211049D02*
Y220066D01*
X219659Y220193D02*
Y185268D01*
X221691Y194793D02*
Y196952D01*
X223723Y198984D02*
Y201651D01*
X225755Y194793D02*
Y191999D01*
X221691Y200635D02*
Y202413D01*
Y206731D02*
Y208255D01*
X222326Y188697D02*
Y187173D01*
X223215Y188824D02*
Y185395D01*
X222453D02*
Y184506D01*
X223215Y184125D02*
Y185649D01*
X221818Y211684D02*
Y221971D01*
X223723Y207747D02*
Y204445D01*
X225755Y189586D02*
Y187173D01*
X226771Y210160D02*
Y210795D01*
Y218161D02*
Y220955D01*
X228549Y197714D02*
Y195555D01*
X230835Y200000D02*
Y211811D01*
Y214097D01*
Y220955D02*
Y222860D01*
Y221590D02*
Y220955D01*
X233375Y198095D02*
Y196571D01*
X235915D02*
Y198095D01*
X233375Y211811D02*
Y218415D01*
X235915Y194158D02*
Y189586D01*
Y211811D02*
Y218415D01*
X238455Y198095D02*
Y196571D01*
X240995D02*
Y198095D01*
X238455Y189586D02*
Y186411D01*
Y211811D02*
Y218415D01*
X240995D02*
Y211811D01*
Y196571D02*
Y186411D01*
X243535Y196571D02*
Y198095D01*
X246075D02*
Y196571D01*
X243535D02*
Y186411D01*
Y211811D02*
Y218415D01*
X246075D02*
Y211811D01*
Y196571D02*
Y186411D01*
X248615Y196571D02*
Y198095D01*
X251155Y191745D02*
Y189586D01*
Y191745D02*
Y196571D01*
X248615Y211811D02*
Y218415D01*
X251155D02*
Y211811D01*
X248615Y196571D02*
Y186411D01*
X256235D02*
Y196571D01*
X253695Y196698D02*
Y186411D01*
X258775D02*
Y196571D01*
Y216002D02*
Y218415D01*
X261315Y196571D02*
Y186411D01*
Y211811D02*
Y213462D01*
Y216002D02*
Y218415D01*
X263855Y197841D02*
Y196571D01*
Y194158D02*
Y191745D01*
Y191237D01*
Y211811D02*
Y213462D01*
X268935Y213970D02*
Y211811D01*
X266395Y220955D02*
Y222606D01*
Y197841D02*
Y196571D01*
Y210541D02*
Y211811D01*
X268935Y197841D02*
Y196571D01*
Y189459D02*
Y186411D01*
X271475Y196571D02*
Y197841D01*
Y211811D02*
Y218415D01*
X274015Y196571D02*
Y191999D01*
Y211811D02*
Y218415D01*
X278206Y221844D02*
Y222860D01*
X279095Y213970D02*
Y211811D01*
X276555Y196571D02*
Y192761D01*
Y211811D02*
Y218415D01*
X279095D02*
Y217272D01*
X284429Y220955D02*
Y221971D01*
X281635Y214732D02*
Y210541D01*
X287731Y220066D02*
Y186157D01*
X288366Y186030D02*
Y220193D01*
X233756Y185649D02*
X228676D01*
X222199Y184760D02*
X221310D01*
X228676Y186411D02*
X233375D01*
X226390Y184125D02*
X223215D01*
X223850Y183998D02*
X225120D01*
X223469Y184125D02*
X220802D01*
X233375Y186411D02*
X235915D01*
X263855D02*
X266395D01*
X228041Y183363D02*
X221564D01*
X225755D02*
X228041D01*
X275412Y190602D02*
X281635D01*
X268935Y189459D02*
X265633D01*
X268935D02*
X273507D01*
X238455Y194158D02*
X229946D01*
X271475Y192761D02*
X274015D01*
X276555Y192888D02*
X281635D01*
X261061Y200635D02*
X251282D01*
X228295D02*
X225755D01*
X273253Y202159D02*
X284175D01*
Y199111D02*
X272745D01*
X228295Y203683D02*
X225755D01*
X273761Y205207D02*
X284175D01*
X262585Y206731D02*
X251155D01*
X228295D02*
X225755D01*
X251155Y203683D02*
X262839D01*
X225374Y208763D02*
X224739D01*
X267411Y208255D02*
X279349D01*
X278968Y221971D02*
X284429D01*
Y220955D02*
X279095D01*
X261315D02*
X256235D01*
X226771D02*
X224231D01*
X221183Y220066D02*
X220294D01*
X283413Y222860D02*
X285699D01*
X232105D02*
X222326D01*
X232105D02*
X284937D01*
D25*
X230835Y220955D02*
D03*
X233375Y218415D02*
D03*
Y220955D02*
D03*
X235915Y218415D02*
D03*
Y220955D02*
D03*
X238455Y218415D02*
D03*
Y220955D02*
D03*
X240995Y218415D02*
D03*
X243535D02*
D03*
Y220955D02*
D03*
X246075Y218415D02*
D03*
Y220955D02*
D03*
X248615Y218415D02*
D03*
Y220955D02*
D03*
X251155Y218415D02*
D03*
Y220955D02*
D03*
X253695Y218415D02*
D03*
Y220955D02*
D03*
X256235Y218415D02*
D03*
Y220955D02*
D03*
X258775Y218415D02*
D03*
Y220955D02*
D03*
X261315Y218415D02*
D03*
Y220955D02*
D03*
X263855Y218415D02*
D03*
Y220955D02*
D03*
X266395Y218415D02*
D03*
Y220955D02*
D03*
X268935Y218415D02*
D03*
Y220955D02*
D03*
X271475Y218415D02*
D03*
Y220955D02*
D03*
X274015Y218415D02*
D03*
Y220955D02*
D03*
X276555Y218415D02*
D03*
Y220955D02*
D03*
X279095Y218415D02*
D03*
Y220955D02*
D03*
X240995D02*
D03*
X230835Y218415D02*
D03*
Y211811D02*
D03*
X233375D02*
D03*
X235915D02*
D03*
X238455D02*
D03*
X240995D02*
D03*
X243535D02*
D03*
X246075D02*
D03*
X248615D02*
D03*
X251155D02*
D03*
X253695D02*
D03*
X256235D02*
D03*
X258775D02*
D03*
X251155Y186411D02*
D03*
D29*
X282270Y196571D02*
X284556Y194285D01*
X285572Y219431D02*
X284683Y220320D01*
X282778D02*
X285572Y217526D01*
X284429Y208890D02*
X286715Y206604D01*
X284429Y217526D02*
X281000Y220955D01*
X285318Y221971D02*
X286715Y220574D01*
X237058Y183744D02*
X235915Y184887D01*
X285699Y183744D02*
X286715Y184760D01*
X281635Y186411D02*
X278968Y183744D01*
X284937Y196571D02*
X286715Y198349D01*
X284429Y188316D02*
X282143Y186030D01*
X285318Y184760D02*
X286207Y185649D01*
X284429Y186411D02*
X281762Y183744D01*
X284556Y186411D02*
X286715Y188570D01*
X235026Y185649D02*
Y184633D01*
X235915Y184887D02*
Y186411D01*
X263855D02*
Y183744D01*
X266395D02*
Y186411D01*
X281635D02*
Y183744D01*
X285572Y187554D02*
Y196190D01*
X284429Y196571D02*
Y188316D01*
X285572Y217907D02*
Y219431D01*
Y217526D02*
Y208636D01*
X284429Y208890D02*
Y217526D01*
X286715Y190602D02*
Y184760D01*
X286207Y185649D02*
Y186284D01*
X286715Y205207D02*
Y220574D01*
Y190602D02*
Y188570D01*
Y190602D02*
Y205207D01*
X237058Y183744D02*
X227787D01*
X237058D02*
X281762D01*
X283794Y184760D02*
X285318D01*
X285699Y183744D02*
X281000D01*
X235026Y184633D02*
X227533D01*
X264363Y185014D02*
X265887D01*
X266395Y186411D02*
X263855D01*
X281635D02*
X284556D01*
X286715Y196571D02*
X279095D01*
X282778Y220320D02*
X284683D01*
X230835Y196571D02*
D03*
X261315Y211811D02*
D03*
X263855D02*
D03*
X266395D02*
D03*
X268935D02*
D03*
X271475D02*
D03*
X274015D02*
D03*
X276555D02*
D03*
X279095D02*
D03*
Y196571D02*
D03*
X276555D02*
D03*
X274015D02*
D03*
X271475D02*
D03*
X268935D02*
D03*
X266395D02*
D03*
X263855D02*
D03*
X261315D02*
D03*
X258775D02*
D03*
X256235D02*
D03*
X253695D02*
D03*
X251155D02*
D03*
X248615D02*
D03*
X246075D02*
D03*
X243535D02*
D03*
X240995D02*
D03*
X238455D02*
D03*
X235915D02*
D03*
X233375D02*
D03*
X271475Y186411D02*
D03*
X268935D02*
D03*
X266395D02*
D03*
X263855D02*
D03*
X261315D02*
D03*
X258775D02*
D03*
X253695D02*
D03*
X256235D02*
D03*
X248615D02*
D03*
X246075D02*
D03*
X243535D02*
D03*
X240995D02*
D03*
X238455D02*
D03*
X233375D02*
D03*
X235915D02*
D03*
X221691Y194793D02*
D03*
X225755D02*
D03*
X286715Y199111D02*
D03*
X284175D02*
D03*
X286715Y202159D02*
D03*
X284175D02*
D03*
X286715Y205207D02*
D03*
X284175D02*
D03*
X228295Y203683D02*
D03*
X251155D02*
D03*
X228295Y206731D02*
D03*
X251155D02*
D03*
X225755Y191999D02*
D03*
X235915D02*
D03*
X221691Y187173D02*
D03*
X225755D02*
D03*
X228295Y200635D02*
D03*
X251155D02*
D03*
X238455Y194158D02*
D03*
X263855D02*
D03*
X238455Y189586D02*
D03*
X251155D02*
D03*
X235915D02*
D03*
X225755D02*
D03*
X263855Y191745D02*
D03*
X251155D02*
D03*
X286715Y192888D02*
D03*
X281635D02*
D03*
Y190602D02*
D03*
X286715D02*
D03*
X276555Y186411D02*
D03*
X281635D02*
D03*
X271475Y192761D02*
D03*
X276555D02*
D03*
X225755Y200635D02*
D03*
X221691D02*
D03*
X224231Y220955D02*
D03*
Y210795D02*
D03*
X226771Y220955D02*
D03*
Y210795D02*
D03*
X225755Y206731D02*
D03*
X221691D02*
D03*
M02*
