M72
M48
T1F00S00C0.914
T2F00S00C1.092
T3F00S00C2.540
%
T01
X0032385Y0003937
Y0029337
X0029845
X0027305
X0024765
X0022225
X0019685
X0017145
X0014605
X0012065
Y0035941
Y0038481
X0014605
Y0035941
X0017145
Y0038481
X0019685
Y0035941
X0022225
X0024765
Y0038481
X0027305
Y0035941
X0029845
Y0038481
X0032385
Y0035941
X0034925
Y0038481
X0037465
Y0035941
X0040005
Y0038481
X0042545
Y0035941
X0045085
Y0038481
X0047625
Y0035941
X0050165
Y0038481
X0052705
Y0035941
X0055245
Y0038481
X0057785
Y0035941
X0060325
Y0038481
X0040005Y0029337
X0037465
X0034925
X0022225Y0038481
T02
X0032385Y0009271
X0045085
X0052705Y0010287
X0057785
X0062865Y0010414
Y0008128
Y0003937
X0057785
X0067945Y0008128
Y0010414
Y0016637
X0065405
Y0019685
X0067945
Y0022733
X0065405
X0060325Y0029337
X0057785
X0055245
X0052705
X0050165
X0047625
X0045085
X0042545
Y0014097
X0045085
Y0011684
X0047625Y0014097
X0050165
X0052705
X0055245
X0057785
X0060325
X0052705Y0003937
X0050165
X0047625
X0045085
X0042545
X0040005
X0037465
X0034925
X0029845
X0027305
X0024765
X0022225
X0019685
X0017145
X0014605
X0017145Y0007112
Y0009525
Y0014097
X0019685
Y0011684
Y0007112
X0022225Y0014097
X0024765
X0027305
X0029845
X0032385
X0034925
X0037465
X0040005
X0032385Y0018161
Y0021209
Y0024257
Y0007112
X0014605Y0014097
X0012065
X0009525Y0018161
X0006985
X0002921
Y0012319
X0006985
Y0009525
Y0007112
Y0004699
X0002921
Y0024257
X0006985
X0009525
Y0021209
X0008001Y0028321
X0005461
Y0038481
X0008001
T03
X0067437Y0003048
Y00381
X0002032Y0033528
X0010541Y0002921
M30
