*%FSLAX53Y53*%
*%MOMM*%
G01*
D22*
X229311Y185395D02*
D03*
X220802Y216002D02*
D03*
X286207Y185522D02*
D03*
Y220574D02*
D03*
D27*
X230835Y220955D02*
D03*
X233375Y218415D02*
D03*
Y220955D02*
D03*
X235915Y218415D02*
D03*
Y220955D02*
D03*
X238455Y218415D02*
D03*
Y220955D02*
D03*
X240995Y218415D02*
D03*
X243535D02*
D03*
Y220955D02*
D03*
X246075Y218415D02*
D03*
Y220955D02*
D03*
X248615Y218415D02*
D03*
Y220955D02*
D03*
X251155Y218415D02*
D03*
Y220955D02*
D03*
X253695Y218415D02*
D03*
Y220955D02*
D03*
X256235Y218415D02*
D03*
Y220955D02*
D03*
X258775Y218415D02*
D03*
Y220955D02*
D03*
X261315Y218415D02*
D03*
Y220955D02*
D03*
X263855Y218415D02*
D03*
Y220955D02*
D03*
X266395Y218415D02*
D03*
Y220955D02*
D03*
X268935Y218415D02*
D03*
Y220955D02*
D03*
X271475Y218415D02*
D03*
Y220955D02*
D03*
X274015Y218415D02*
D03*
Y220955D02*
D03*
X276555Y218415D02*
D03*
Y220955D02*
D03*
X279095Y218415D02*
D03*
Y220955D02*
D03*
X240995D02*
D03*
X230835Y218415D02*
D03*
Y211811D02*
D03*
X233375D02*
D03*
X235915D02*
D03*
X238455D02*
D03*
X240995D02*
D03*
X243535D02*
D03*
X246075D02*
D03*
X248615D02*
D03*
X251155D02*
D03*
X253695D02*
D03*
X256235D02*
D03*
X258775D02*
D03*
X251155Y186411D02*
D03*
D30*
X230835Y196571D02*
D03*
X261315Y211811D02*
D03*
X263855D02*
D03*
X266395D02*
D03*
X268935D02*
D03*
X271475D02*
D03*
X274015D02*
D03*
X276555D02*
D03*
X279095D02*
D03*
Y196571D02*
D03*
X276555D02*
D03*
X274015D02*
D03*
X271475D02*
D03*
X268935D02*
D03*
X266395D02*
D03*
X263855D02*
D03*
X261315D02*
D03*
X258775D02*
D03*
X256235D02*
D03*
X253695D02*
D03*
X251155D02*
D03*
X248615D02*
D03*
X246075D02*
D03*
X243535D02*
D03*
X240995D02*
D03*
X238455D02*
D03*
X235915D02*
D03*
X233375D02*
D03*
X271475Y186411D02*
D03*
X268935D02*
D03*
X266395D02*
D03*
X263855D02*
D03*
X261315D02*
D03*
X258775D02*
D03*
X253695D02*
D03*
X256235D02*
D03*
X248615D02*
D03*
X246075D02*
D03*
X243535D02*
D03*
X240995D02*
D03*
X238455D02*
D03*
X233375D02*
D03*
X235915D02*
D03*
X221691Y194793D02*
D03*
X225755D02*
D03*
X286715Y199111D02*
D03*
X284175D02*
D03*
X286715Y202159D02*
D03*
X284175D02*
D03*
X286715Y205207D02*
D03*
X284175D02*
D03*
X228295Y203683D02*
D03*
X251155D02*
D03*
X228295Y206731D02*
D03*
X251155D02*
D03*
X225755Y191999D02*
D03*
X235915D02*
D03*
X221691Y187173D02*
D03*
X225755D02*
D03*
X228295Y200635D02*
D03*
X251155D02*
D03*
X238455Y194158D02*
D03*
X263855D02*
D03*
X238455Y189586D02*
D03*
X251155D02*
D03*
X235915D02*
D03*
X225755D02*
D03*
X263855Y191745D02*
D03*
X251155D02*
D03*
X286715Y192888D02*
D03*
X281635D02*
D03*
Y190602D02*
D03*
X286715D02*
D03*
X276555Y186411D02*
D03*
X281635D02*
D03*
X271475Y192761D02*
D03*
X276555D02*
D03*
X225755Y200635D02*
D03*
X221691D02*
D03*
X224231Y220955D02*
D03*
Y210795D02*
D03*
X226771Y220955D02*
D03*
Y210795D02*
D03*
X225755Y206731D02*
D03*
X221691D02*
D03*
M02*
