*%FSLAX53Y53*%
*%MOMM*%
G01*
D11*
X244339Y215197D02*
X244170Y215366D01*
X243831D01*
X243662Y215197D01*
Y215028D01*
X243831Y214858D01*
X244170D01*
X244339Y214689D01*
Y214520D01*
X244170Y214351D01*
X243831D01*
X243662Y214520D01*
X244678Y215366D02*
X245016D01*
X244847D01*
Y214351D01*
X244678D01*
X245016D01*
X245694Y215366D02*
X246032D01*
X245694D02*
X245524Y215197D01*
Y214520D01*
X245694Y214351D01*
X246032D01*
X246201Y214520D01*
Y215197D01*
X246032Y215366D01*
X246540Y214351D02*
X247217D01*
X246540D02*
X247217Y215028D01*
Y215197D01*
X247048Y215366D01*
X246709D01*
X246540Y215197D01*
X247556Y215366D02*
X247894D01*
X247725D01*
Y214351D01*
X247556D01*
X247894D01*
X248402D02*
Y215366D01*
Y214351D02*
X248910D01*
X249079Y214520D01*
Y215197D01*
X248910Y215366D01*
X248402D01*
X249418D02*
X250095D01*
X249418D02*
Y214351D01*
X250095D01*
X249756Y214858D02*
X249418D01*
X251449Y214351D02*
X251788D01*
X251618D01*
Y215366D01*
X251644D01*
X251618D02*
X251449Y215197D01*
X252295Y214520D02*
Y214351D01*
Y214520D02*
X252465D01*
Y214351D01*
X252295D01*
X253142Y215197D02*
X253311Y215366D01*
X253650D01*
X253819Y215197D01*
Y214520D01*
X253650Y214351D01*
X253311D01*
X253142Y214520D01*
Y215197D01*
X253568Y183363D02*
X253907D01*
X253737D01*
Y184378D01*
X253763D01*
X253737D02*
X253568Y184209D01*
X233460Y183490D02*
X233121D01*
X233290D02*
X233460D01*
X233290D02*
Y184505D01*
X233316D01*
X233290D02*
X233121Y184336D01*
X231047Y215621D02*
X230708D01*
X230877D02*
X231047D01*
X230877D02*
Y216636D01*
X230903D01*
X230877D02*
X230708Y216467D01*
X255981Y215366D02*
Y214351D01*
X256320Y215028D02*
X255981Y215366D01*
X256320Y215028D02*
X256658Y215366D01*
Y214351D01*
X256997D02*
Y215366D01*
X257335Y215028D01*
X257674Y215366D01*
Y214351D01*
X258690Y215197D02*
X258520Y215366D01*
X258182D01*
X258013Y215197D01*
Y215028D01*
X258182Y214858D01*
X258520D01*
X258690Y214689D01*
Y214520D01*
X258520Y214351D01*
X258182D01*
X258013Y214520D01*
X259197Y214351D02*
X259536D01*
X259705Y214520D01*
Y214858D01*
X259536Y215028D01*
X259197D01*
X259028Y214858D01*
Y214520D01*
X259197Y214351D01*
X260213D02*
Y215197D01*
Y214858D01*
X260044D01*
X260382D01*
X260213D01*
Y215197D01*
X260382Y215366D01*
X261060Y215197D02*
Y215028D01*
X260890D01*
X261229D01*
X261060D01*
Y214520D01*
X261229Y214351D01*
X262752D02*
X263429D01*
X262752D02*
X263429Y215028D01*
Y215197D01*
X263260Y215366D01*
X262922D01*
X262752Y215197D01*
X263768D02*
X263937Y215366D01*
X264276D01*
X264445Y215197D01*
Y214520D01*
X264276Y214351D01*
X263937D01*
X263768Y214520D01*
Y215197D01*
X264784D02*
X264953Y215366D01*
X265292D01*
X265461Y215197D01*
Y214520D01*
X265292Y214351D01*
X264953D01*
X264784Y214520D01*
Y215197D01*
X265799Y214351D02*
X266138D01*
X265969D01*
Y215366D01*
X265994D01*
X265969D02*
X265799Y215197D01*
X274879Y216687D02*
X275217D01*
X275048D01*
Y215671D01*
X274879D01*
X275217D01*
X275725D02*
Y216687D01*
Y215671D02*
X276233D01*
X276402Y215840D01*
Y216517D01*
X276233Y216687D01*
X275725D01*
X276741D02*
X277418D01*
X276741D02*
Y215671D01*
X277418D01*
X277079Y216179D02*
X276741D01*
X277757Y215502D02*
X278434D01*
X278772Y216687D02*
X279111D01*
X278941D01*
Y215671D01*
X278772D01*
X279111D01*
X279788Y216687D02*
X280126D01*
X279788D02*
X279619Y216517D01*
Y215840D01*
X279788Y215671D01*
X280126D01*
X280296Y215840D01*
Y216517D01*
X280126Y216687D01*
X229015Y209156D02*
X228169D01*
X229015D02*
X229185Y209326D01*
Y209664D01*
X229015Y209833D01*
X228169D01*
X229185Y210172D02*
Y210511D01*
Y210341D01*
X228169D01*
X228194D01*
X228169D02*
X228338Y210172D01*
X259156Y184276D02*
X259325Y184107D01*
X259156Y184276D02*
X258817D01*
X258648Y184107D01*
Y183938D01*
X258817Y183768D01*
X259156D01*
X259325Y183599D01*
Y183430D01*
X259156Y183261D01*
X258817D01*
X258648Y183430D01*
X259664Y184276D02*
X260002D01*
X259833D01*
Y183261D01*
X259664D01*
X260002D01*
X260680Y184276D02*
X261018D01*
X260680D02*
X260510Y184107D01*
Y183430D01*
X260680Y183261D01*
X261018D01*
X261187Y183430D01*
Y184107D01*
X261018Y184276D01*
X261526Y183091D02*
X262203D01*
X262542Y184276D02*
X262880D01*
X262711D01*
Y183261D01*
X262542D01*
X262880D01*
X263557Y184276D02*
X263896D01*
X263557D02*
X263388Y184107D01*
Y183430D01*
X263557Y183261D01*
X263896D01*
X264065Y183430D01*
Y184107D01*
X263896Y184276D01*
X239937D02*
X239598D01*
X239767D02*
X239937D01*
X239767D02*
Y183261D01*
X239598D01*
X239937D01*
X240952Y184276D02*
X241122Y184107D01*
X240952Y184276D02*
X240614D01*
X240445Y184107D01*
Y183938D01*
X240614Y183768D01*
X240952D01*
X241122Y183599D01*
Y183430D01*
X240952Y183261D01*
X240614D01*
X240445Y183430D01*
X241460Y183261D02*
Y184276D01*
X241968D01*
X242137Y184107D01*
Y183768D01*
X241968Y183599D01*
X241460D01*
X242476Y183091D02*
X243153D01*
X243492Y184276D02*
X243830D01*
X243661D01*
Y183261D01*
X243492D01*
X243830D01*
X244507Y184276D02*
X244846D01*
X244507D02*
X244338Y184107D01*
Y183430D01*
X244507Y183261D01*
X244846D01*
X245015Y183430D01*
Y184107D01*
X244846Y184276D01*
X219318Y189725D02*
Y190064D01*
Y189895D01*
X220334D01*
Y189725D01*
Y190064D01*
Y190572D02*
X219318D01*
X220334D02*
Y191080D01*
X220165Y191249D01*
X219488D01*
X219318Y191080D01*
Y190572D01*
Y191587D02*
Y192264D01*
Y191587D02*
X220334D01*
Y192264D01*
X219826Y191926D02*
Y191587D01*
X220503Y192603D02*
Y193280D01*
X220334Y193619D02*
X219318D01*
X220334D02*
Y194296D01*
X219318Y194634D02*
Y195312D01*
Y194634D02*
X220334D01*
Y195312D01*
X219826Y194973D02*
Y194634D01*
X220334Y195650D02*
X219318D01*
X220334D02*
Y196158D01*
X220165Y196327D01*
X219488D01*
X219318Y196158D01*
Y195650D01*
X282855Y210388D02*
X283871D01*
X283363D01*
Y211065D01*
X282855D01*
X283871D01*
Y211404D02*
X282855D01*
X283871D02*
Y211912D01*
X283702Y212081D01*
X283024D01*
X282855Y211912D01*
Y211404D01*
X283871Y212420D02*
Y212758D01*
Y212589D01*
X282855D01*
X282881D01*
X282855D02*
X283024Y212420D01*
X284040Y213266D02*
Y213943D01*
X282855Y214282D02*
Y214959D01*
X283024D01*
X283702Y214282D01*
X283871D01*
Y214959D01*
Y215297D02*
X282855D01*
X283532Y215636D02*
X283871Y215297D01*
X283532Y215636D02*
X283871Y215974D01*
X282855D01*
X284887Y210727D02*
Y210388D01*
Y210557D02*
Y210727D01*
Y210557D02*
X285903D01*
Y210388D01*
Y210727D01*
Y211235D02*
X284887D01*
X285903Y211912D01*
X284887D01*
Y212250D02*
Y212589D01*
Y212420D01*
X285903D01*
Y212250D01*
Y212589D01*
X284887Y213097D02*
Y213774D01*
Y213435D01*
X285903D01*
X286072Y214112D02*
Y214789D01*
X284887Y215128D02*
Y215805D01*
X285056D01*
X285734Y215128D01*
X285903D01*
Y215805D01*
Y216144D02*
X284887D01*
X285564Y216482D02*
X285903Y216144D01*
X285564Y216482D02*
X285903Y216821D01*
X284887D01*
X286919Y210388D02*
X287935D01*
X287258Y210727D02*
X286919Y210388D01*
X287258Y210727D02*
X286919Y211065D01*
X287935D01*
X287088Y212081D02*
X286919Y211912D01*
Y211573D01*
X287088Y211404D01*
X287258D01*
X287427Y211573D01*
Y211912D01*
X287596Y212081D01*
X287766D01*
X287935Y211912D01*
Y211573D01*
X287766Y211404D01*
X288104Y212420D02*
Y213097D01*
X286919Y213435D02*
Y214112D01*
X287088D01*
X287766Y213435D01*
X287935D01*
Y214112D01*
Y214451D02*
X286919D01*
X287596Y214789D02*
X287935Y214451D01*
X287596Y214789D02*
X287935Y215128D01*
X286919D01*
X239907Y203162D02*
X239230D01*
X239907D02*
Y202992D01*
X239230Y202315D01*
Y202146D01*
X239907D01*
X240246Y202992D02*
X240415Y203162D01*
X240753D01*
X240923Y202992D01*
Y202823D01*
X240948D01*
X240923D02*
X240948D01*
X240923D02*
X240948D01*
X240923D02*
X240753Y202654D01*
X240584D01*
X240753D01*
X240923Y202484D01*
Y202315D01*
X240753Y202146D01*
X240415D01*
X240246Y202315D01*
X239780Y206210D02*
X239103D01*
X239780D02*
Y206040D01*
X239103Y205363D01*
Y205194D01*
X239780D01*
X240119D02*
X240796D01*
X240119D02*
X240796Y205871D01*
Y206040D01*
X240626Y206210D01*
X240288D01*
X240119Y206040D01*
X229959Y192633D02*
Y191617D01*
Y192633D02*
X230467D01*
X230636Y192464D01*
Y192125D01*
X230467Y191956D01*
X229959D01*
X230297D02*
X230636Y191617D01*
X231482D02*
Y192633D01*
X230975Y192125D01*
X231652D01*
X220307Y184211D02*
Y183196D01*
Y184211D02*
X220815D01*
X220984Y184042D01*
Y183703D01*
X220815Y183534D01*
X220307D01*
X221323Y183196D02*
Y184211D01*
X221661Y183534D02*
X221323Y183196D01*
X221661Y183534D02*
X222000Y183196D01*
Y184211D01*
X222338D02*
Y183196D01*
Y184211D02*
X222846D01*
X223015Y184042D01*
Y183703D01*
X222846Y183534D01*
X222338D01*
X222677D02*
X223015Y183196D01*
X223354Y183026D02*
X224031D01*
X224370Y183196D02*
Y184211D01*
Y183196D02*
X225047D01*
X225385Y184211D02*
X226062D01*
X225385D02*
Y183196D01*
X226062D01*
X225724Y183703D02*
X225385D01*
X226401Y183196D02*
Y184211D01*
Y183196D02*
X226909D01*
X227078Y183365D01*
Y184042D01*
X226909Y184211D01*
X226401D01*
X239230Y200241D02*
X239907D01*
Y200071D01*
X239230Y199394D01*
Y199225D01*
X239907D01*
X240246D02*
X240584D01*
X240415D01*
Y200241D01*
X240440D01*
X240415D02*
X240246Y200071D01*
X246342Y193764D02*
X247019D01*
Y193594D01*
X246342Y192917D01*
Y192748D01*
X247019D01*
X247358Y193764D02*
X248035D01*
X247358D02*
Y193256D01*
X247696Y193425D01*
X247865D01*
X248035Y193256D01*
Y192917D01*
X247865Y192748D01*
X247527D01*
X247358Y192917D01*
X244606Y191097D02*
X243929D01*
X244606D02*
Y190927D01*
X243929Y190250D01*
Y190081D01*
X244606D01*
X245452D02*
Y191097D01*
X244945Y190589D01*
X245622D01*
X229959Y190093D02*
Y189077D01*
Y190093D02*
X230467D01*
X230636Y189924D01*
Y189585D01*
X230467Y189416D01*
X229959D01*
X230297D02*
X230636Y189077D01*
X230975Y189924D02*
X231144Y190093D01*
X231482D01*
X231652Y189924D01*
Y189754D01*
X231677D01*
X231652D02*
X231677D01*
X231652D02*
X231677D01*
X231652D02*
X231482Y189585D01*
X231313D01*
X231482D01*
X231652Y189416D01*
Y189246D01*
X231482Y189077D01*
X231144D01*
X230975Y189246D01*
X256248Y191236D02*
Y192252D01*
X256756D01*
X256925Y192083D01*
Y191744D01*
X256756Y191575D01*
X256248D01*
X256586D02*
X256925Y191236D01*
X257264D02*
X257602D01*
X257433D01*
Y192252D01*
X257458D01*
X257433D02*
X257264Y192083D01*
X258110D02*
X258279Y192252D01*
X258618D01*
X258787Y192083D01*
Y191405D01*
X258618Y191236D01*
X258279D01*
X258110Y191405D01*
Y192083D01*
X283807Y195439D02*
X283976Y195270D01*
X283807Y195439D02*
X283468D01*
X283299Y195270D01*
Y194593D01*
X283468Y194424D01*
X283807D01*
X283976Y194593D01*
X284315Y195270D02*
X284484Y195439D01*
X284822D01*
X284992Y195270D01*
Y195101D01*
X285017D01*
X284992D02*
X285017D01*
X284992D02*
X285017D01*
X284992D02*
X284822Y194932D01*
X284653D01*
X284822D01*
X284992Y194762D01*
Y194593D01*
X284822Y194424D01*
X284484D01*
X284315Y194593D01*
X283934Y189216D02*
X284103Y189047D01*
X283934Y189216D02*
X283595D01*
X283426Y189047D01*
Y188370D01*
X283595Y188201D01*
X283934D01*
X284103Y188370D01*
X284442Y188201D02*
X285119D01*
X284442D02*
X285119Y188878D01*
Y189047D01*
X284949Y189216D01*
X284611D01*
X284442Y189047D01*
X283045Y184592D02*
X283214Y184423D01*
X283045Y184592D02*
X282706D01*
X282537Y184423D01*
Y183746D01*
X282706Y183577D01*
X283045D01*
X283214Y183746D01*
X283553Y183577D02*
X283891D01*
X283722D01*
Y184592D01*
X283747D01*
X283722D02*
X283553Y184423D01*
X266536Y193200D02*
Y193369D01*
Y193200D02*
X266875Y192862D01*
X267213Y193200D01*
Y193369D01*
X266875Y192862D02*
Y192354D01*
X267552D02*
X267890D01*
X267721D01*
Y193369D01*
X267747D01*
X267721D02*
X267552Y193200D01*
X219488Y198149D02*
X219318Y197980D01*
Y197642D01*
X219488Y197472D01*
X219657D01*
X219826Y197642D01*
Y197980D01*
X219996Y198149D01*
X220165D01*
X220334Y197980D01*
Y197642D01*
X220165Y197472D01*
X219318Y198488D02*
Y198827D01*
Y198657D01*
X220334D01*
Y198488D01*
Y198827D01*
X219318Y199504D02*
Y199842D01*
Y199504D02*
X219488Y199334D01*
X220165D01*
X220334Y199504D01*
Y199842D01*
X220165Y200011D01*
X219488D01*
X219318Y199842D01*
X220503Y200350D02*
Y201027D01*
X220334Y201366D02*
X219318D01*
X220334D02*
Y202043D01*
X219318Y202381D02*
Y203059D01*
Y202381D02*
X220334D01*
Y203059D01*
X219826Y202720D02*
Y202381D01*
X220334Y203397D02*
X219318D01*
X220334D02*
Y203905D01*
X220165Y204074D01*
X219488D01*
X219318Y203905D01*
Y203397D01*
X223724Y215125D02*
X224740D01*
X223724D02*
Y215633D01*
X223893Y215802D01*
X224232D01*
X224401Y215633D01*
Y215125D01*
Y215464D02*
X224740Y215802D01*
Y216141D02*
Y216480D01*
Y216310D01*
X223724D01*
X223749D01*
X223724D02*
X223893Y216141D01*
X226264Y214998D02*
X227280D01*
X226264D02*
Y215506D01*
X226433Y215675D01*
X226772D01*
X226941Y215506D01*
Y214998D01*
Y215337D02*
X227280Y215675D01*
Y216014D02*
Y216691D01*
Y216014D02*
X226603Y216691D01*
X226433D01*
X226264Y216522D01*
Y216183D01*
X226433Y216014D01*
X220334Y206362D02*
X219318D01*
X220334D02*
Y206870D01*
X220165Y207039D01*
X219996D01*
X219826Y206870D01*
Y206362D01*
X219852D01*
X219826D02*
X219852D01*
X219826D02*
X219852D01*
X219826D02*
Y206870D01*
X219657Y207039D01*
X219488D01*
X219318Y206870D01*
Y206362D01*
Y207886D02*
X219488Y208055D01*
X219318Y207886D02*
Y207547D01*
X219488Y207378D01*
X219657D01*
X219826Y207547D01*
Y207886D01*
X219996Y208055D01*
X220165D01*
X220334Y207886D01*
Y207547D01*
X220165Y207378D01*
X219488Y208394D02*
X219318D01*
X219488D02*
X219826Y208732D01*
X219488Y209071D01*
X219318D01*
X219826Y208732D02*
X220334D01*
X220503Y209409D02*
Y210086D01*
X220334Y210425D02*
X219318D01*
X220334D02*
Y211102D01*
X219318Y211441D02*
Y212118D01*
Y211441D02*
X220334D01*
Y212118D01*
X219826Y211779D02*
Y211441D01*
X220334Y212456D02*
X219318D01*
X220334D02*
Y212964D01*
X220165Y213133D01*
X219488D01*
X219318Y212964D01*
Y212456D01*
D13*
X229565Y204826D02*
X229648Y204820D01*
X229730Y204804D01*
X229808Y204777D01*
X229883Y204741D01*
X229952Y204694D01*
X230014Y204640D01*
X230069Y204577D01*
X230115Y204508D01*
X230152Y204434D01*
X230179Y204355D01*
X230195Y204273D01*
X230200Y204191D01*
X230195Y204108D01*
X230179Y204026D01*
X230152Y203948D01*
X230115Y203873D01*
X230069Y203804D01*
X230014Y203742D01*
X229952Y203687D01*
X229883Y203641D01*
X229808Y203604D01*
X229730Y203577D01*
X229648Y203561D01*
X229565Y203556D01*
Y197841D01*
Y204826D02*
Y210541D01*
X280365D02*
Y197841D01*
Y210541D02*
X229565D01*
Y197841D02*
X280365D01*
X226263Y194793D02*
X226262Y194708D01*
X226258Y194624D01*
X226251Y194540D01*
X226241Y194456D01*
X226228Y194372D01*
X226213Y194289D01*
X226195Y194207D01*
X226174Y194125D01*
X226150Y194044D01*
X226124Y193964D01*
X226095Y193884D01*
X226064Y193806D01*
X226030Y193729D01*
X225993Y193653D01*
X225954Y193578D01*
X225912Y193504D01*
X225868Y193432D01*
X225822Y193362D01*
X225773Y193293D01*
X225722Y193225D01*
X225669Y193160D01*
X225614Y193096D01*
X225556Y193034D01*
X225497Y192974D01*
X225435Y192916D01*
X225372Y192860D01*
X225307Y192807D01*
X225240Y192755D01*
X225171Y192706D01*
X225101Y192659D01*
X225030Y192614D01*
X224956Y192572D01*
X224882Y192532D01*
X224806Y192495D01*
X224729Y192460D01*
X224651Y192428D01*
X224572Y192399D01*
X224492Y192372D01*
X224411Y192348D01*
X224329Y192326D01*
X224247Y192307D01*
X224164Y192291D01*
X224081Y192278D01*
X223997Y192267D01*
X223913Y192260D01*
X223829Y192255D01*
X223744Y192253D01*
X223660Y192253D01*
X223576Y192257D01*
X223491Y192263D01*
X223407Y192272D01*
X223324Y192284D01*
X223241Y192299D01*
X223158Y192316D01*
X223076Y192336D01*
X222995Y192359D01*
X222914Y192385D01*
X222835Y192413D01*
X222756Y192444D01*
X222679Y192477D01*
X222602Y192513D01*
X222527Y192552D01*
X222453Y192593D01*
X222381Y192636D01*
X222310Y192682D01*
X222240Y192730D01*
X222173Y192781D01*
X222107Y192833D01*
X222043Y192888D01*
X221980Y192945D01*
X221920Y193004D01*
X221861Y193065D01*
X221805Y193128D01*
X221751Y193192D01*
X221698Y193259D01*
X221649Y193327D01*
X221601Y193397D01*
X221556Y193468D01*
X221513Y193541D01*
X221473Y193615D01*
X221435Y193691D01*
X221399Y193767D01*
X221367Y193845D01*
X221336Y193924D01*
X221309Y194004D01*
X221284Y194084D01*
X221262Y194166D01*
X221242Y194248D01*
X221226Y194331D01*
X221212Y194414D01*
X221200Y194498D01*
X221192Y194582D01*
X221186Y194666D01*
X221184Y194750D01*
Y194835D01*
X221186Y194919D01*
X221192Y195003D01*
X221200Y195087D01*
X221212Y195171D01*
X221226Y195254D01*
X221242Y195337D01*
X221262Y195419D01*
X221284Y195501D01*
X221309Y195582D01*
X221336Y195661D01*
X221367Y195740D01*
X221399Y195818D01*
X221435Y195895D01*
X221473Y195970D01*
X221513Y196044D01*
X221556Y196117D01*
X221601Y196188D01*
X221649Y196258D01*
X221698Y196326D01*
X221751Y196393D01*
X221805Y196457D01*
X221861Y196520D01*
X221920Y196581D01*
X221980Y196640D01*
X222043Y196697D01*
X222107Y196752D01*
X222173Y196805D01*
X222240Y196855D01*
X222310Y196903D01*
X222381Y196949D01*
X222453Y196992D01*
X222527Y197033D01*
X222602Y197072D01*
X222679Y197108D01*
X222756Y197141D01*
X222835Y197172D01*
X222914Y197200D01*
X222995Y197226D01*
X223076Y197249D01*
X223158Y197269D01*
X223241Y197286D01*
X223324Y197301D01*
X223407Y197313D01*
X223491Y197322D01*
X223576Y197328D01*
X223660Y197332D01*
X223744Y197333D01*
X223829Y197330D01*
X223913Y197326D01*
X223997Y197318D01*
X224081Y197307D01*
X224164Y197294D01*
X224247Y197278D01*
X224329Y197259D01*
X224411Y197238D01*
X224492Y197213D01*
X224572Y197187D01*
X224651Y197157D01*
X224729Y197125D01*
X224806Y197090D01*
X224882Y197053D01*
X224956Y197013D01*
X225030Y196971D01*
X225101Y196926D01*
X225171Y196879D01*
X225240Y196830D01*
X225307Y196778D01*
X225372Y196725D01*
X225435Y196669D01*
X225497Y196611D01*
X225556Y196551D01*
X225614Y196489D01*
X225669Y196425D01*
X225722Y196360D01*
X225773Y196292D01*
X225822Y196223D01*
X225868Y196153D01*
X225912Y196081D01*
X225954Y196007D01*
X225993Y195933D01*
X226030Y195856D01*
X226064Y195779D01*
X226095Y195701D01*
X226124Y195622D01*
X226150Y195541D01*
X226174Y195460D01*
X226195Y195378D01*
X226213Y195296D01*
X226228Y195213D01*
X226241Y195129D01*
X226251Y195046D01*
X226258Y194961D01*
X226262Y194877D01*
X226263Y194793D01*
X223342Y195936D02*
X222707Y196571D01*
X223215Y196698D02*
X223850Y196063D01*
Y194793D02*
X224104Y194539D01*
X224231Y194285D02*
X223723Y194793D01*
X223596Y194666D02*
X224231Y194031D01*
X224358Y193777D02*
X223342Y194793D01*
X223850D02*
X223977Y194920D01*
X223723D02*
X224104Y195301D01*
X224231Y195555D02*
X223596Y194920D01*
X223342Y194793D02*
X224358Y195809D01*
X223215Y196444D02*
Y196698D01*
X222707Y196571D02*
Y196190D01*
X224358Y194412D02*
Y193777D01*
X223977Y194920D02*
Y195047D01*
X224104Y195301D02*
Y194539D01*
X223723Y194793D02*
Y194920D01*
X224231Y194285D02*
Y194031D01*
X223596Y194666D02*
Y194920D01*
X224231Y195555D02*
Y194158D01*
X223342Y193904D02*
Y195682D01*
X224358Y195809D02*
Y193904D01*
X223596Y196698D02*
X223215D01*
X222961Y196571D02*
X222707D01*
X221183Y194793D02*
X226263D01*
X229413Y203683D02*
X250038D01*
Y206731D02*
X229413D01*
X227787Y193015D02*
Y190983D01*
X233883D02*
Y193015D01*
X227787Y191999D02*
X226771D01*
X233883D02*
X234899D01*
X233883Y193015D02*
X227787D01*
Y190983D02*
X233883D01*
X226263Y187173D02*
X226262Y187088D01*
X226258Y187004D01*
X226251Y186920D01*
X226241Y186836D01*
X226228Y186752D01*
X226213Y186669D01*
X226195Y186587D01*
X226174Y186505D01*
X226150Y186424D01*
X226124Y186344D01*
X226095Y186264D01*
X226064Y186186D01*
X226030Y186109D01*
X225993Y186033D01*
X225954Y185958D01*
X225912Y185884D01*
X225868Y185812D01*
X225822Y185742D01*
X225773Y185673D01*
X225722Y185606D01*
X225669Y185540D01*
X225614Y185476D01*
X225556Y185414D01*
X225497Y185354D01*
X225435Y185296D01*
X225372Y185240D01*
X225307Y185187D01*
X225240Y185135D01*
X225171Y185086D01*
X225101Y185039D01*
X225030Y184994D01*
X224956Y184952D01*
X224882Y184912D01*
X224806Y184875D01*
X224729Y184840D01*
X224651Y184808D01*
X224572Y184779D01*
X224492Y184752D01*
X224411Y184728D01*
X224329Y184706D01*
X224247Y184687D01*
X224164Y184671D01*
X224081Y184658D01*
X223997Y184647D01*
X223913Y184640D01*
X223829Y184635D01*
X223744Y184633D01*
X223660Y184633D01*
X223576Y184637D01*
X223491Y184643D01*
X223407Y184652D01*
X223324Y184664D01*
X223241Y184679D01*
X223158Y184696D01*
X223076Y184716D01*
X222995Y184739D01*
X222914Y184765D01*
X222835Y184793D01*
X222756Y184824D01*
X222679Y184857D01*
X222602Y184893D01*
X222527Y184932D01*
X222453Y184973D01*
X222381Y185016D01*
X222310Y185062D01*
X222240Y185110D01*
X222173Y185161D01*
X222107Y185213D01*
X222043Y185268D01*
X221980Y185325D01*
X221920Y185384D01*
X221861Y185445D01*
X221805Y185508D01*
X221751Y185572D01*
X221698Y185639D01*
X221649Y185707D01*
X221601Y185777D01*
X221556Y185848D01*
X221513Y185921D01*
X221473Y185995D01*
X221435Y186071D01*
X221399Y186147D01*
X221367Y186225D01*
X221336Y186304D01*
X221309Y186384D01*
X221284Y186464D01*
X221262Y186546D01*
X221242Y186628D01*
X221226Y186711D01*
X221212Y186794D01*
X221200Y186878D01*
X221192Y186962D01*
X221186Y187046D01*
X221184Y187130D01*
Y187215D01*
X221186Y187299D01*
X221192Y187383D01*
X221200Y187467D01*
X221212Y187551D01*
X221226Y187634D01*
X221242Y187717D01*
X221262Y187799D01*
X221284Y187881D01*
X221309Y187962D01*
X221336Y188041D01*
X221367Y188120D01*
X221399Y188198D01*
X221435Y188275D01*
X221473Y188350D01*
X221513Y188424D01*
X221556Y188497D01*
X221601Y188568D01*
X221649Y188638D01*
X221698Y188706D01*
X221751Y188773D01*
X221805Y188837D01*
X221861Y188900D01*
X221920Y188961D01*
X221980Y189020D01*
X222043Y189077D01*
X222107Y189132D01*
X222173Y189184D01*
X222240Y189235D01*
X222310Y189283D01*
X222381Y189329D01*
X222453Y189372D01*
X222527Y189413D01*
X222602Y189452D01*
X222679Y189488D01*
X222756Y189521D01*
X222835Y189552D01*
X222914Y189580D01*
X222995Y189606D01*
X223076Y189629D01*
X223158Y189649D01*
X223241Y189666D01*
X223324Y189681D01*
X223407Y189693D01*
X223491Y189702D01*
X223576Y189708D01*
X223660Y189712D01*
X223744Y189713D01*
X223829Y189710D01*
X223913Y189705D01*
X223997Y189698D01*
X224081Y189687D01*
X224164Y189674D01*
X224247Y189658D01*
X224329Y189639D01*
X224411Y189618D01*
X224492Y189593D01*
X224572Y189567D01*
X224651Y189537D01*
X224729Y189505D01*
X224806Y189470D01*
X224882Y189433D01*
X224956Y189393D01*
X225030Y189351D01*
X225101Y189306D01*
X225171Y189259D01*
X225240Y189210D01*
X225307Y189158D01*
X225372Y189105D01*
X225435Y189049D01*
X225497Y188991D01*
X225556Y188931D01*
X225614Y188869D01*
X225669Y188805D01*
X225722Y188740D01*
X225773Y188672D01*
X225822Y188603D01*
X225868Y188533D01*
X225912Y188461D01*
X225954Y188387D01*
X225993Y188313D01*
X226030Y188236D01*
X226064Y188159D01*
X226095Y188081D01*
X226124Y188002D01*
X226150Y187921D01*
X226174Y187840D01*
X226195Y187758D01*
X226213Y187676D01*
X226228Y187593D01*
X226241Y187509D01*
X226251Y187425D01*
X226258Y187341D01*
X226262Y187257D01*
X226263Y187173D01*
X223342Y188316D02*
X222707Y188951D01*
X223215Y189078D02*
X223850Y188443D01*
Y187173D02*
X224104Y186919D01*
X224231Y186665D02*
X223723Y187173D01*
X223596Y187046D02*
X224231Y186411D01*
X224358Y186157D02*
X223342Y187173D01*
X223850D02*
X223977Y187300D01*
X223723D02*
X224104Y187681D01*
X224231Y187935D02*
X223596Y187300D01*
X223342Y187173D02*
X224358Y188189D01*
X223215Y188824D02*
Y189078D01*
X222707Y188951D02*
Y188570D01*
X224358Y186792D02*
Y186157D01*
X223977Y187300D02*
Y187427D01*
X224104Y187681D02*
Y186919D01*
X223723Y187173D02*
Y187300D01*
X224231Y186665D02*
Y186411D01*
X223596Y187046D02*
Y187300D01*
X224231Y187935D02*
Y186538D01*
X223342Y186284D02*
Y188062D01*
X224358Y188189D02*
Y186284D01*
X223596Y189078D02*
X223215D01*
X222961Y188951D02*
X222707D01*
X221183Y187173D02*
X226263D01*
X229413Y200635D02*
X250038D01*
X239573Y194158D02*
X262738D01*
X250038Y189586D02*
X239573D01*
X233883Y188570D02*
Y190602D01*
X227787D02*
Y188570D01*
X233883Y189586D02*
X234899D01*
X227787D02*
X226771D01*
X227787Y188570D02*
X233883D01*
Y190602D02*
X227787D01*
X254711Y190729D02*
Y192761D01*
X260299D02*
Y190729D01*
Y191745D02*
X262839D01*
X254711D02*
X252171D01*
X254711Y192761D02*
X260299D01*
Y190729D02*
X254711D01*
X284785Y191999D02*
Y193777D01*
X283566D02*
Y191999D01*
X284912D02*
Y193777D01*
X284607D02*
Y191999D01*
X283718D02*
Y193777D01*
X283413D02*
Y191999D01*
Y192888D02*
X282397D01*
X284937D02*
X285953D01*
X284912Y191999D02*
X284607D01*
Y193777D02*
X284912D01*
X283718D02*
X283413D01*
Y191999D02*
X283718D01*
X283566Y191491D02*
Y189713D01*
X284785D02*
Y191491D01*
X283439D02*
Y189713D01*
X283743D02*
Y191491D01*
X284632D02*
Y189713D01*
X284937D02*
Y191491D01*
Y190602D02*
X285953D01*
X283413D02*
X282397D01*
X283439Y191491D02*
X283743D01*
Y189713D02*
X283439D01*
X284632D02*
X284937D01*
Y191491D02*
X284632D01*
X282651Y186411D02*
X282650Y186326D01*
X282647Y186241D01*
X282642Y186157D01*
X282635Y186073D01*
X282626Y185988D01*
X282615Y185905D01*
X282602Y185821D01*
X282587Y185738D01*
X282570Y185655D01*
X282551Y185572D01*
X282530Y185490D01*
X282507Y185409D01*
X282482Y185328D01*
X282456Y185248D01*
X282427Y185168D01*
X282396Y185089D01*
X282364Y185011D01*
X282330Y184933D01*
X282294Y184857D01*
X282256Y184781D01*
X282216Y184706D01*
X282175Y184633D01*
X282132Y184560D01*
X282087Y184488D01*
X282040Y184417D01*
X281992Y184348D01*
X281942Y184280D01*
X281890Y184212D01*
X281837Y184147D01*
X281783Y184082D01*
X281726Y184019D01*
X281669Y183957D01*
X281610Y183896D01*
X281549Y183837D01*
X281487Y183779D01*
X281424Y183723D01*
X281359Y183668D01*
X281293Y183615D01*
X281226Y183564D01*
X281158Y183514D01*
X281088Y183466D01*
X281018Y183419D01*
X280946Y183374D01*
X280873Y183331D01*
X280799Y183290D01*
X280725Y183250D01*
X280649Y183212D01*
X280572Y183176D01*
X280495Y183142D01*
X280417Y183109D01*
X280338Y183079D01*
X280258Y183050D01*
X280178Y183023D01*
X280097Y182999D01*
X280016Y182976D01*
X279934Y182955D01*
X279851Y182936D01*
X279768Y182919D01*
X279685Y182904D01*
X279601Y182891D01*
X279517Y182880D01*
X279433Y182871D01*
X279349Y182864D01*
X279264Y182859D01*
X279180Y182856D01*
X279095Y182855D01*
X279011Y182856D01*
X278926Y182859D01*
X278842Y182864D01*
X278757Y182871D01*
X278673Y182880D01*
X278589Y182891D01*
X278506Y182904D01*
X278422Y182919D01*
X278339Y182936D01*
X278257Y182955D01*
X278175Y182976D01*
X278093Y182999D01*
X278012Y183023D01*
X277932Y183050D01*
X277853Y183079D01*
X277774Y183109D01*
X277695Y183142D01*
X277618Y183176D01*
X277541Y183212D01*
X277466Y183250D01*
X277391Y183290D01*
X277317Y183331D01*
X277244Y183374D01*
X277173Y183419D01*
X277102Y183466D01*
X277033Y183514D01*
X276964Y183564D01*
X276897Y183615D01*
X276831Y183668D01*
X276767Y183723D01*
X276703Y183779D01*
X276641Y183837D01*
X276581Y183896D01*
X276522Y183957D01*
X276464Y184019D01*
X276408Y184082D01*
X276353Y184147D01*
X276300Y184212D01*
X276248Y184280D01*
X276199Y184348D01*
X276150Y184417D01*
X276104Y184488D01*
X276059Y184560D01*
X276016Y184633D01*
X275974Y184706D01*
X275934Y184781D01*
X275897Y184857D01*
X275861Y184933D01*
X275826Y185011D01*
X275794Y185089D01*
X275763Y185168D01*
X275735Y185248D01*
X275708Y185328D01*
X275683Y185409D01*
X275660Y185490D01*
X275639Y185572D01*
X275620Y185655D01*
X275603Y185738D01*
X275588Y185821D01*
X275575Y185905D01*
X275564Y185988D01*
X275555Y186073D01*
X275548Y186157D01*
X275543Y186241D01*
X275540Y186326D01*
X275539Y186411D01*
X275540Y186495D01*
X275543Y186580D01*
X275548Y186664D01*
X275555Y186749D01*
X275564Y186833D01*
X275575Y186917D01*
X275588Y187000D01*
X275603Y187084D01*
X275620Y187166D01*
X275639Y187249D01*
X275660Y187331D01*
X275683Y187412D01*
X275708Y187493D01*
X275735Y187574D01*
X275763Y187653D01*
X275794Y187732D01*
X275826Y187810D01*
X275861Y187888D01*
X275897Y187964D01*
X275934Y188040D01*
X275974Y188115D01*
X276016Y188189D01*
X276059Y188261D01*
X276104Y188333D01*
X276150Y188404D01*
X276199Y188473D01*
X276248Y188542D01*
X276300Y188609D01*
X276353Y188675D01*
X276408Y188739D01*
X276464Y188803D01*
X276522Y188865D01*
X276581Y188925D01*
X276641Y188984D01*
X276703Y189042D01*
X276767Y189098D01*
X276831Y189153D01*
X276897Y189206D01*
X276964Y189257D01*
X277033Y189307D01*
X277102Y189356D01*
X277173Y189402D01*
X277244Y189447D01*
X277317Y189490D01*
X277391Y189532D01*
X277466Y189571D01*
X277541Y189609D01*
X277618Y189645D01*
X277695Y189679D01*
X277774Y189712D01*
X277853Y189742D01*
X277932Y189771D01*
X278012Y189798D01*
X278093Y189823D01*
X278175Y189845D01*
X278257Y189866D01*
X278339Y189885D01*
X278422Y189902D01*
X278506Y189917D01*
X278589Y189930D01*
X278673Y189941D01*
X278757Y189951D01*
X278842Y189958D01*
X278926Y189963D01*
X279011Y189966D01*
X279095Y189967D01*
X279180Y189966D01*
X279264Y189963D01*
X279349Y189958D01*
X279433Y189951D01*
X279517Y189941D01*
X279601Y189930D01*
X279685Y189917D01*
X279768Y189902D01*
X279851Y189885D01*
X279934Y189866D01*
X280016Y189845D01*
X280097Y189823D01*
X280178Y189798D01*
X280258Y189771D01*
X280338Y189742D01*
X280417Y189712D01*
X280495Y189679D01*
X280572Y189645D01*
X280649Y189609D01*
X280725Y189571D01*
X280799Y189532D01*
X280873Y189490D01*
X280946Y189447D01*
X281018Y189402D01*
X281088Y189356D01*
X281158Y189307D01*
X281226Y189257D01*
X281293Y189206D01*
X281359Y189153D01*
X281424Y189098D01*
X281487Y189042D01*
X281549Y188984D01*
X281610Y188925D01*
X281669Y188865D01*
X281726Y188803D01*
X281783Y188739D01*
X281837Y188675D01*
X281890Y188609D01*
X281942Y188542D01*
X281992Y188473D01*
X282040Y188404D01*
X282087Y188333D01*
X282132Y188261D01*
X282175Y188189D01*
X282216Y188115D01*
X282256Y188040D01*
X282294Y187964D01*
X282330Y187888D01*
X282364Y187810D01*
X282396Y187732D01*
X282427Y187653D01*
X282456Y187574D01*
X282482Y187493D01*
X282507Y187412D01*
X282530Y187331D01*
X282551Y187249D01*
X282570Y187166D01*
X282587Y187084D01*
X282602Y187000D01*
X282615Y186917D01*
X282626Y186833D01*
X282635Y186749D01*
X282642Y186664D01*
X282647Y186580D01*
X282650Y186495D01*
X282651Y186411D01*
X277444Y187427D02*
Y188189D01*
X278841Y187808D02*
Y185039D01*
X278232D02*
Y187808D01*
X279400D02*
Y185039D01*
X279984D02*
Y187808D01*
X279603Y187681D02*
Y185141D01*
X279857D02*
Y187681D01*
X279730D02*
Y185268D01*
X278206Y186411D02*
X277317D01*
X277063Y187808D02*
X277825D01*
X278232Y185039D02*
X278841D01*
Y187808D02*
X278232D01*
X279857Y186411D02*
X280873D01*
X279984Y187808D02*
X279425D01*
Y185039D02*
X279984D01*
X279857Y185141D02*
X279603D01*
X277520Y190500D02*
X277605Y190502D01*
X277689Y190506D01*
X277774Y190514D01*
X277857Y190525D01*
X277941Y190539D01*
X278023Y190557D01*
X278105Y190577D01*
X278187Y190600D01*
X278267Y190627D01*
X278346Y190656D01*
X278424Y190689D01*
X278501Y190724D01*
X278577Y190762D01*
X278651Y190803D01*
X278723Y190846D01*
X278794Y190893D01*
X278863Y190942D01*
X278930Y190993D01*
X278995Y191047D01*
X279058Y191103D01*
X279119Y191162D01*
X279178Y191223D01*
X279234Y191286D01*
X279288Y191351D01*
X279339Y191418D01*
X279388Y191487D01*
X279435Y191558D01*
X279478Y191630D01*
X279519Y191704D01*
X279557Y191780D01*
X279592Y191857D01*
X279625Y191935D01*
X279654Y192014D01*
X279681Y192094D01*
X279704Y192176D01*
X279724Y192258D01*
X279742Y192340D01*
X279756Y192424D01*
X279767Y192507D01*
X279775Y192592D01*
X279779Y192676D01*
X279781Y192761D01*
X279779Y192845D01*
X279775Y192930D01*
X279767Y193014D01*
X279756Y193098D01*
X279742Y193181D01*
X279724Y193264D01*
X279704Y193346D01*
X279681Y193427D01*
X279654Y193507D01*
X279625Y193586D01*
X279592Y193665D01*
X279557Y193741D01*
X279519Y193817D01*
X279478Y193891D01*
X279435Y193963D01*
X279388Y194034D01*
X279339Y194103D01*
X279288Y194170D01*
X279234Y194235D01*
X279178Y194298D01*
X279119Y194359D01*
X279058Y194418D01*
X278995Y194474D01*
X278930Y194528D01*
X278863Y194579D01*
X278794Y194628D01*
X278723Y194675D01*
X278651Y194718D01*
X278577Y194759D01*
X278501Y194797D01*
X278424Y194833D01*
X278346Y194865D01*
X278267Y194894D01*
X278187Y194921D01*
X278105Y194944D01*
X278023Y194965D01*
X277941Y194982D01*
X277857Y194996D01*
X277774Y195007D01*
X277689Y195015D01*
X277605Y195020D01*
X277520Y195021D01*
X270510D02*
X270425Y195020D01*
X270341Y195015D01*
X270257Y195007D01*
X270173Y194996D01*
X270090Y194982D01*
X270007Y194965D01*
X269925Y194944D01*
X269844Y194921D01*
X269763Y194894D01*
X269684Y194865D01*
X269606Y194833D01*
X269529Y194797D01*
X269454Y194759D01*
X269380Y194718D01*
X269307Y194675D01*
X269237Y194628D01*
X269168Y194579D01*
X269101Y194528D01*
X269035Y194474D01*
X268972Y194418D01*
X268912Y194359D01*
X268853Y194298D01*
X268797Y194235D01*
X268743Y194170D01*
X268691Y194103D01*
X268642Y194034D01*
X268596Y193963D01*
X268552Y193891D01*
X268511Y193817D01*
X268473Y193741D01*
X268438Y193665D01*
X268406Y193586D01*
X268376Y193507D01*
X268350Y193427D01*
X268326Y193346D01*
X268306Y193264D01*
X268289Y193181D01*
X268275Y193098D01*
X268264Y193014D01*
X268256Y192930D01*
X268251Y192845D01*
X268249Y192761D01*
X268251Y192676D01*
X268256Y192592D01*
X268264Y192507D01*
X268275Y192424D01*
X268289Y192340D01*
X268306Y192258D01*
X268326Y192176D01*
X268350Y192094D01*
X268376Y192014D01*
X268406Y191935D01*
X268438Y191857D01*
X268473Y191780D01*
X268511Y191704D01*
X268552Y191630D01*
X268596Y191558D01*
X268642Y191487D01*
X268691Y191418D01*
X268743Y191351D01*
X268797Y191286D01*
X268853Y191223D01*
X268912Y191162D01*
X268972Y191103D01*
X269035Y191047D01*
X269101Y190993D01*
X269168Y190942D01*
X269237Y190893D01*
X269307Y190846D01*
X269380Y190803D01*
X269454Y190762D01*
X269529Y190724D01*
X269606Y190689D01*
X269684Y190656D01*
X269763Y190627D01*
X269844Y190600D01*
X269925Y190577D01*
X270007Y190557D01*
X270090Y190539D01*
X270173Y190525D01*
X270257Y190514D01*
X270341Y190506D01*
X270425Y190502D01*
X270510Y190500D01*
X274269Y191999D02*
Y193523D01*
X273761D02*
Y191999D01*
X274777D02*
Y193523D01*
X273253D02*
Y191999D01*
X273761Y193523D02*
X274269D01*
Y191999D02*
X273761D01*
X273253Y192761D02*
X272263D01*
X274777D02*
X275768D01*
X277520Y195021D02*
X270510D01*
Y190500D02*
X277520D01*
X226263Y200635D02*
X226262Y200550D01*
X226258Y200466D01*
X226251Y200382D01*
X226241Y200298D01*
X226228Y200214D01*
X226213Y200131D01*
X226195Y200049D01*
X226174Y199967D01*
X226150Y199886D01*
X226124Y199806D01*
X226095Y199726D01*
X226064Y199648D01*
X226030Y199571D01*
X225993Y199495D01*
X225954Y199420D01*
X225912Y199346D01*
X225868Y199274D01*
X225822Y199204D01*
X225773Y199135D01*
X225722Y199067D01*
X225669Y199002D01*
X225614Y198938D01*
X225556Y198876D01*
X225497Y198816D01*
X225435Y198758D01*
X225372Y198702D01*
X225307Y198649D01*
X225240Y198597D01*
X225171Y198548D01*
X225101Y198501D01*
X225030Y198456D01*
X224956Y198414D01*
X224882Y198374D01*
X224806Y198337D01*
X224729Y198302D01*
X224651Y198270D01*
X224572Y198241D01*
X224492Y198214D01*
X224411Y198190D01*
X224329Y198168D01*
X224247Y198149D01*
X224164Y198133D01*
X224081Y198120D01*
X223997Y198109D01*
X223913Y198102D01*
X223829Y198097D01*
X223744Y198095D01*
X223660Y198095D01*
X223576Y198099D01*
X223491Y198105D01*
X223407Y198114D01*
X223324Y198126D01*
X223241Y198141D01*
X223158Y198158D01*
X223076Y198178D01*
X222995Y198201D01*
X222914Y198227D01*
X222835Y198255D01*
X222756Y198286D01*
X222679Y198319D01*
X222602Y198355D01*
X222527Y198394D01*
X222453Y198435D01*
X222381Y198478D01*
X222310Y198524D01*
X222240Y198572D01*
X222173Y198623D01*
X222107Y198675D01*
X222043Y198730D01*
X221980Y198787D01*
X221920Y198846D01*
X221861Y198907D01*
X221805Y198970D01*
X221751Y199034D01*
X221698Y199101D01*
X221649Y199169D01*
X221601Y199239D01*
X221556Y199310D01*
X221513Y199383D01*
X221473Y199457D01*
X221435Y199533D01*
X221399Y199609D01*
X221367Y199687D01*
X221336Y199766D01*
X221309Y199846D01*
X221284Y199926D01*
X221262Y200008D01*
X221242Y200090D01*
X221226Y200173D01*
X221212Y200256D01*
X221200Y200340D01*
X221192Y200424D01*
X221186Y200508D01*
X221184Y200592D01*
Y200677D01*
X221186Y200761D01*
X221192Y200845D01*
X221200Y200929D01*
X221212Y201013D01*
X221226Y201096D01*
X221242Y201179D01*
X221262Y201261D01*
X221284Y201343D01*
X221309Y201424D01*
X221336Y201503D01*
X221367Y201582D01*
X221399Y201660D01*
X221435Y201737D01*
X221473Y201812D01*
X221513Y201886D01*
X221556Y201959D01*
X221601Y202030D01*
X221649Y202100D01*
X221698Y202168D01*
X221751Y202235D01*
X221805Y202299D01*
X221861Y202362D01*
X221920Y202423D01*
X221980Y202482D01*
X222043Y202539D01*
X222107Y202594D01*
X222173Y202647D01*
X222240Y202697D01*
X222310Y202745D01*
X222381Y202791D01*
X222453Y202834D01*
X222527Y202875D01*
X222602Y202914D01*
X222679Y202950D01*
X222756Y202983D01*
X222835Y203014D01*
X222914Y203042D01*
X222995Y203068D01*
X223076Y203091D01*
X223158Y203111D01*
X223241Y203128D01*
X223324Y203143D01*
X223407Y203155D01*
X223491Y203164D01*
X223576Y203170D01*
X223660Y203174D01*
X223744Y203175D01*
X223829Y203172D01*
X223913Y203167D01*
X223997Y203160D01*
X224081Y203149D01*
X224164Y203136D01*
X224247Y203120D01*
X224329Y203101D01*
X224411Y203080D01*
X224492Y203055D01*
X224572Y203029D01*
X224651Y202999D01*
X224729Y202967D01*
X224806Y202932D01*
X224882Y202895D01*
X224956Y202855D01*
X225030Y202813D01*
X225101Y202768D01*
X225171Y202721D01*
X225240Y202672D01*
X225307Y202620D01*
X225372Y202567D01*
X225435Y202511D01*
X225497Y202453D01*
X225556Y202393D01*
X225614Y202331D01*
X225669Y202267D01*
X225722Y202202D01*
X225773Y202134D01*
X225822Y202065D01*
X225868Y201995D01*
X225912Y201923D01*
X225954Y201849D01*
X225993Y201775D01*
X226030Y201698D01*
X226064Y201621D01*
X226095Y201543D01*
X226124Y201464D01*
X226150Y201383D01*
X226174Y201302D01*
X226195Y201220D01*
X226213Y201138D01*
X226228Y201055D01*
X226241Y200971D01*
X226251Y200887D01*
X226258Y200803D01*
X226262Y200719D01*
X226263Y200635D01*
X224739Y198857D02*
X224104Y199492D01*
X223596Y199365D02*
X224231Y198730D01*
X223596Y200635D02*
X223342Y200889D01*
X223215Y201143D02*
X223723Y200635D01*
X223850Y200762D02*
X223215Y201397D01*
X223088Y201651D02*
X224104Y200635D01*
X223596D02*
X223469Y200508D01*
X223723D02*
X223342Y200127D01*
X223215Y199873D02*
X223850Y200508D01*
X224104Y200635D02*
X223088Y199619D01*
X224231Y198984D02*
Y198730D01*
X224739Y198857D02*
Y199238D01*
X223088Y201016D02*
Y201651D01*
X223469Y200508D02*
Y200381D01*
X223342Y200127D02*
Y200889D01*
X223723Y200635D02*
Y200508D01*
X223215Y201143D02*
Y201397D01*
X223850Y200762D02*
Y200508D01*
X223215Y199873D02*
Y201270D01*
X224104Y201524D02*
Y199746D01*
X223088Y199619D02*
Y201524D01*
X223850Y198730D02*
X224231D01*
X224485Y198857D02*
X224739D01*
X226263Y200635D02*
X221183D01*
X224231Y218923D02*
Y219939D01*
Y212827D02*
Y211811D01*
X225247Y212827D02*
Y218923D01*
X223215D02*
Y212827D01*
Y218923D02*
X225247D01*
Y212827D02*
X223215D01*
X226771Y218923D02*
Y219939D01*
Y212827D02*
Y211811D01*
X227787Y212827D02*
Y218923D01*
X225755D02*
Y212827D01*
Y218923D02*
X227787D01*
Y212827D02*
X225755D01*
X226263Y206731D02*
X226262Y206646D01*
X226258Y206562D01*
X226251Y206478D01*
X226241Y206394D01*
X226228Y206310D01*
X226213Y206227D01*
X226195Y206145D01*
X226174Y206063D01*
X226150Y205982D01*
X226124Y205902D01*
X226095Y205822D01*
X226064Y205744D01*
X226030Y205667D01*
X225993Y205591D01*
X225954Y205516D01*
X225912Y205442D01*
X225868Y205370D01*
X225822Y205300D01*
X225773Y205231D01*
X225722Y205164D01*
X225669Y205098D01*
X225614Y205034D01*
X225556Y204972D01*
X225497Y204912D01*
X225435Y204854D01*
X225372Y204798D01*
X225307Y204745D01*
X225240Y204693D01*
X225171Y204644D01*
X225101Y204597D01*
X225030Y204552D01*
X224956Y204510D01*
X224882Y204470D01*
X224806Y204433D01*
X224729Y204398D01*
X224651Y204366D01*
X224572Y204337D01*
X224492Y204310D01*
X224411Y204286D01*
X224329Y204264D01*
X224247Y204245D01*
X224164Y204229D01*
X224081Y204216D01*
X223997Y204205D01*
X223913Y204198D01*
X223829Y204193D01*
X223744Y204191D01*
X223660Y204191D01*
X223576Y204195D01*
X223491Y204201D01*
X223407Y204210D01*
X223324Y204222D01*
X223241Y204237D01*
X223158Y204254D01*
X223076Y204274D01*
X222995Y204297D01*
X222914Y204323D01*
X222835Y204351D01*
X222756Y204382D01*
X222679Y204415D01*
X222602Y204451D01*
X222527Y204490D01*
X222453Y204531D01*
X222381Y204574D01*
X222310Y204620D01*
X222240Y204668D01*
X222173Y204719D01*
X222107Y204771D01*
X222043Y204826D01*
X221980Y204883D01*
X221920Y204942D01*
X221861Y205003D01*
X221805Y205066D01*
X221751Y205130D01*
X221698Y205197D01*
X221649Y205265D01*
X221601Y205335D01*
X221556Y205406D01*
X221513Y205479D01*
X221473Y205553D01*
X221435Y205629D01*
X221399Y205705D01*
X221367Y205783D01*
X221336Y205862D01*
X221309Y205942D01*
X221284Y206022D01*
X221262Y206104D01*
X221242Y206186D01*
X221226Y206269D01*
X221212Y206352D01*
X221200Y206436D01*
X221192Y206520D01*
X221186Y206604D01*
X221184Y206688D01*
Y206773D01*
X221186Y206857D01*
X221192Y206941D01*
X221200Y207025D01*
X221212Y207109D01*
X221226Y207192D01*
X221242Y207275D01*
X221262Y207357D01*
X221284Y207439D01*
X221309Y207520D01*
X221336Y207599D01*
X221367Y207678D01*
X221399Y207756D01*
X221435Y207833D01*
X221473Y207908D01*
X221513Y207982D01*
X221556Y208055D01*
X221601Y208126D01*
X221649Y208196D01*
X221698Y208264D01*
X221751Y208331D01*
X221805Y208395D01*
X221861Y208458D01*
X221920Y208519D01*
X221980Y208578D01*
X222043Y208635D01*
X222107Y208690D01*
X222173Y208742D01*
X222240Y208793D01*
X222310Y208841D01*
X222381Y208887D01*
X222453Y208930D01*
X222527Y208971D01*
X222602Y209010D01*
X222679Y209046D01*
X222756Y209079D01*
X222835Y209110D01*
X222914Y209138D01*
X222995Y209164D01*
X223076Y209187D01*
X223158Y209207D01*
X223241Y209224D01*
X223324Y209239D01*
X223407Y209251D01*
X223491Y209260D01*
X223576Y209266D01*
X223660Y209270D01*
X223744Y209271D01*
X223829Y209268D01*
X223913Y209263D01*
X223997Y209256D01*
X224081Y209245D01*
X224164Y209232D01*
X224247Y209216D01*
X224329Y209197D01*
X224411Y209176D01*
X224492Y209151D01*
X224572Y209125D01*
X224651Y209095D01*
X224729Y209063D01*
X224806Y209028D01*
X224882Y208991D01*
X224956Y208951D01*
X225030Y208909D01*
X225101Y208864D01*
X225171Y208817D01*
X225240Y208768D01*
X225307Y208716D01*
X225372Y208663D01*
X225435Y208607D01*
X225497Y208549D01*
X225556Y208489D01*
X225614Y208427D01*
X225669Y208363D01*
X225722Y208298D01*
X225773Y208230D01*
X225822Y208161D01*
X225868Y208091D01*
X225912Y208019D01*
X225954Y207945D01*
X225993Y207871D01*
X226030Y207794D01*
X226064Y207717D01*
X226095Y207639D01*
X226124Y207560D01*
X226150Y207479D01*
X226174Y207398D01*
X226195Y207316D01*
X226213Y207234D01*
X226228Y207151D01*
X226241Y207067D01*
X226251Y206984D01*
X226258Y206899D01*
X226262Y206815D01*
X226263Y206731D01*
X224739Y204953D02*
X224104Y205588D01*
X223596Y205461D02*
X224231Y204826D01*
X223596Y206731D02*
X223342Y206985D01*
X223215Y207239D02*
X223723Y206731D01*
X223850Y206858D02*
X223215Y207493D01*
X223088Y207747D02*
X224104Y206731D01*
X223596D02*
X223469Y206604D01*
X223723D02*
X223342Y206223D01*
X223215Y205969D02*
X223850Y206604D01*
X224104Y206731D02*
X223088Y205715D01*
X224231Y205080D02*
Y204826D01*
X224739Y204953D02*
Y205334D01*
X223088Y207112D02*
Y207747D01*
X223469Y206604D02*
Y206477D01*
X223342Y206223D02*
Y206985D01*
X223723Y206731D02*
Y206604D01*
X223215Y207239D02*
Y207493D01*
X223850Y206858D02*
Y206604D01*
X223215Y205969D02*
Y207366D01*
X224104Y207620D02*
Y205842D01*
X223088Y205715D02*
Y207620D01*
X223850Y204826D02*
X224231D01*
X224485Y204953D02*
X224739D01*
X226263Y206731D02*
X221183D01*
D14*
X254965Y187681D02*
Y185141D01*
X252425D02*
Y187681D01*
X272745D02*
Y185141D01*
Y187681D02*
X252425D01*
Y185141D02*
X272745D01*
X234645D02*
Y187681D01*
X232105D02*
Y185141D01*
X252425D02*
Y187681D01*
X232105D01*
Y185141D02*
X252425D01*
X282651D02*
Y187681D01*
X282524D02*
Y185141D01*
X282778D02*
Y187681D01*
X282651Y185141D02*
X282524D01*
Y187681D02*
X282778D01*
Y185141D02*
X282651D01*
D15*
X282143Y207493D02*
X285318D01*
X282905Y202159D02*
X282143D01*
X282905Y199111D02*
X281254D01*
Y208382D02*
X283413D01*
X285318Y207493D02*
Y209906D01*
X282143Y207493D02*
Y202159D01*
X281254Y199111D02*
Y208382D01*
X287477Y209779D02*
Y206477D01*
X283413Y208382D02*
Y209906D01*
X229565Y217145D02*
Y222225D01*
X280365D02*
Y217145D01*
X232105D02*
Y219685D01*
X229565Y217145D02*
X280365D01*
Y222225D02*
X229565D01*
Y219685D02*
X232105D01*
X287985Y200381D02*
Y197841D01*
X282905D02*
Y200381D01*
Y197841D02*
X287985D01*
Y200381D02*
X282905D01*
X287985Y200889D02*
Y203429D01*
X282905D02*
Y200889D01*
X287985D01*
Y203429D02*
X282905D01*
X287985Y203937D02*
Y206477D01*
X282905D02*
Y203937D01*
X287985D01*
Y206477D02*
X282905D01*
D02*
M02*
