M71
M48
T1F00S00C0.035
T2F00S00C0.036
T3F00S00C0.039
T4F00S00C0.043
T5F00S00C0.091
T6F00S00C0.118
%
T01
X0059Y02055
Y0213
X0069
Y02055
T02
X01595Y00325
X01695Y00805
Y00905
Y01005
X01595Y01105
X01915Y0094
Y0064
X0222Y00705
X02475
X01395Y00805
X01305
X01195
Y00705
X01395Y00605
X014Y01205
X0154Y01165
Y01565
X014Y01605
X01305
X01225Y01405
X01125
X01025
Y01305
X01125
X01225
X00885Y0126
X0081Y0122
Y0142
X00885Y0146
X00955Y01505
Y00905
X00415Y0109
X00115
Y0049
X00415
X00465Y00195
X0056Y00095
X00665Y00195
X0069Y0178
X0079
X0059
X0049
Y0169
X01355Y01775
Y01275
X01805Y0163
X0194Y01605
Y02105
X01695
Y02005
X01805Y0223
X01975Y02465
Y02565
X027Y02405
Y02305
Y02205
Y02105
Y02005
Y01905
Y01805
Y01705
Y01605
X0285Y01505
X03015
Y01605
Y01705
Y01805
Y01905
Y02005
Y02105
Y02205
Y02305
Y02405
X03115
Y02505
X03015
X0285
X03115Y02305
Y02205
Y02105
Y02005
Y01905
Y01805
Y01705
Y01605
Y01505
Y01405
X03015
Y01305
X03115
Y01205
X03015
Y01105
X03115
Y01005
X03015
Y00905
X03115
Y00805
X03015
Y00705
X03115
Y00605
X03015
T03
X01765Y00295
X01925
X0202
X02005Y00405
X01835
X01695Y00505
Y00605
Y00705
X01835Y00805
X02005
X0191Y01305
X0171
X01695Y01105
X01605Y01455
X01805
X0218Y00295
X0207Y0015
X0247
X0255
X02645
X03045
X03015Y00215
Y00375
X0255Y0055
X01495Y00505
Y00405
Y00605
Y00705
Y00805
Y00905
Y01005
Y01105
X0147Y01255
Y01455
X01195Y01105
Y01005
Y00905
Y00605
Y00505
Y00405
X0111Y00255
X0103
X01295Y00245
X01695
X00795Y00215
Y00095
X0042Y00325
X003
X00215Y0038
Y0018
X00205Y00975
X00115
Y01175
X00205
X00245Y0128
Y01375
X00445
Y0128
X0053Y0111
X0063
X0073
Y0151
X0063
X0053
X00335Y01105
Y00905
X0103Y00755
X0111Y00655
X00365Y0153
Y0169
X00195Y0153
Y0193
X01695Y01905
Y01805
Y01705
X01605Y01545
X01805
X021Y01505
Y01405
Y01305
Y01205
Y01105
Y01005
Y00905
Y00805
Y00705
Y00605
Y00505
X027
Y00605
Y00705
Y00805
Y00905
Y01005
Y01105
Y01205
Y01305
Y01405
Y01505
X021Y01605
Y01705
Y01805
Y01905
Y02005
Y02105
Y02205
Y02305
Y02405
X0187Y0249
X01695Y02305
Y02205
X0187Y02115
T04
X0095Y00095
Y00495
X0149Y00095
Y02515
T05
X004Y0224
X0088
T06
X03275Y00095
Y0136
X0171Y00095
X01245
X0011
Y0136
Y02515
X0124
X0171
X03275
M30
