*%FSLAX23Y23*%
*%MOIN*%
G01*
D18*
X9802Y9147D02*
Y9187D01*
Y9227D02*
Y9267D01*
X9822Y9207D02*
X9862D01*
X9782D02*
X9742D01*
X9802Y6767D02*
Y6727D01*
Y6807D02*
Y6847D01*
X9822Y6787D02*
X9862D01*
X9782D02*
X9742D01*
D33*
X9537Y8097D02*
D03*
Y7997D02*
D03*
X9437D02*
D03*
Y8097D02*
D03*
X9337Y7997D02*
D03*
Y8097D02*
D03*
D34*
X8902Y8747D02*
D03*
X9002D02*
D03*
Y8822D02*
D03*
X8902D02*
D03*
D35*
X10287Y9157D02*
D03*
Y9257D02*
D03*
X8802Y8382D02*
D03*
X8872Y6787D02*
D03*
X10252Y8797D02*
D03*
Y8297D02*
D03*
X10007Y8797D02*
D03*
Y8697D02*
D03*
X10117Y8922D02*
D03*
Y8322D02*
D03*
X11427Y9197D02*
D03*
X11327Y9097D02*
D03*
X11427D02*
D03*
X11327Y8997D02*
D03*
X11427D02*
D03*
X11327Y8897D02*
D03*
X11427D02*
D03*
X11327Y8797D02*
D03*
Y8697D02*
D03*
X11427D02*
D03*
X11327Y8597D02*
D03*
X11427D02*
D03*
X11327Y8497D02*
D03*
X11427D02*
D03*
X11327Y8397D02*
D03*
X11427D02*
D03*
X11327Y8297D02*
D03*
X11427D02*
D03*
X11327Y8197D02*
D03*
X11427D02*
D03*
X11327Y8097D02*
D03*
X11427D02*
D03*
X11327Y7997D02*
D03*
X11427D02*
D03*
X11327Y7897D02*
D03*
X11427D02*
D03*
X11327Y7797D02*
D03*
X11427D02*
D03*
X11327Y7697D02*
D03*
X11427D02*
D03*
X11327Y7597D02*
D03*
X11427D02*
D03*
X11327Y7497D02*
D03*
X11427D02*
D03*
X11327Y7397D02*
D03*
X11427D02*
D03*
X11327Y7297D02*
D03*
X11427D02*
D03*
Y8797D02*
D03*
X11327Y9197D02*
D03*
X11012Y9097D02*
D03*
Y8997D02*
D03*
Y8897D02*
D03*
Y8797D02*
D03*
Y8697D02*
D03*
Y8597D02*
D03*
Y8497D02*
D03*
Y8397D02*
D03*
Y8297D02*
D03*
X11162Y8197D02*
D03*
Y9197D02*
D03*
X10787Y7397D02*
D03*
X10532D02*
D03*
X10227Y7632D02*
D03*
Y7332D02*
D03*
X10007Y7497D02*
D03*
Y7597D02*
D03*
Y7697D02*
D03*
X9907Y7797D02*
D03*
Y7017D02*
D03*
X9667Y8467D02*
D03*
Y7967D02*
D03*
X8802Y8472D02*
D03*
X9102D02*
D03*
X9002D02*
D03*
X8902D02*
D03*
X9507Y7497D02*
D03*
Y7397D02*
D03*
X9617Y7497D02*
D03*
Y8297D02*
D03*
X9712Y7897D02*
D03*
Y8297D02*
D03*
X9707Y7497D02*
D03*
Y7297D02*
D03*
X8727Y7782D02*
D03*
X8427D02*
D03*
Y7182D02*
D03*
X8727D02*
D03*
X9267Y8197D02*
D03*
Y7597D02*
D03*
X9197Y8152D02*
D03*
Y7952D02*
D03*
X8977Y6887D02*
D03*
X8777D02*
D03*
X9852Y8257D02*
D03*
Y7857D02*
D03*
X9122Y7912D02*
D03*
Y8112D02*
D03*
D39*
X8817Y7697D02*
D03*
Y7647D02*
D03*
Y7597D02*
D03*
Y7547D02*
D03*
Y7497D02*
D03*
Y7447D02*
D03*
Y7397D02*
D03*
Y7347D02*
D03*
Y7297D02*
D03*
Y7247D02*
D03*
Y7197D02*
D03*
Y7147D02*
D03*
Y7097D02*
D03*
Y7047D02*
D03*
X9197D02*
D03*
Y7097D02*
D03*
Y7147D02*
D03*
Y7197D02*
D03*
Y7247D02*
D03*
Y7297D02*
D03*
Y7347D02*
D03*
Y7397D02*
D03*
Y7447D02*
D03*
Y7497D02*
D03*
Y7547D02*
D03*
Y7597D02*
D03*
Y7647D02*
D03*
Y7697D02*
D03*
D40*
X10182Y9182D02*
D03*
Y8807D02*
D03*
X10007Y8897D02*
D03*
Y8997D02*
D03*
Y8597D02*
D03*
Y8497D02*
D03*
Y8397D02*
D03*
X10117Y8237D02*
D03*
X9917D02*
D03*
X10412Y9097D02*
D03*
X11012Y8197D02*
D03*
Y8097D02*
D03*
Y7997D02*
D03*
Y7897D02*
D03*
Y7797D02*
D03*
Y7697D02*
D03*
Y7597D02*
D03*
Y7497D02*
D03*
Y7397D02*
D03*
Y7297D02*
D03*
Y7197D02*
D03*
X10412D02*
D03*
Y7297D02*
D03*
Y7397D02*
D03*
Y7497D02*
D03*
Y7597D02*
D03*
Y7697D02*
D03*
Y7797D02*
D03*
Y7897D02*
D03*
Y7997D02*
D03*
Y8097D02*
D03*
Y8197D02*
D03*
Y8297D02*
D03*
Y8397D02*
D03*
Y8497D02*
D03*
Y8597D02*
D03*
Y8697D02*
D03*
Y8797D02*
D03*
Y8897D02*
D03*
Y8997D02*
D03*
X10317Y7097D02*
D03*
Y7497D02*
D03*
X10147D02*
D03*
Y7097D02*
D03*
X11357Y6842D02*
D03*
X10957D02*
D03*
X10782D02*
D03*
X10382D02*
D03*
X10492Y6987D02*
D03*
X10332D02*
D03*
X10077D02*
D03*
X10237D02*
D03*
X10222Y7997D02*
D03*
X10022D02*
D03*
X9917Y8147D02*
D03*
X10117D02*
D03*
X11327Y7067D02*
D03*
Y6907D02*
D03*
X10007Y7197D02*
D03*
Y7297D02*
D03*
Y7397D02*
D03*
Y7797D02*
D03*
X10862Y7242D02*
D03*
Y6842D02*
D03*
X8677Y8382D02*
D03*
Y8222D02*
D03*
X8507Y8622D02*
D03*
Y8222D02*
D03*
X9507Y7697D02*
D03*
Y7597D02*
D03*
Y7297D02*
D03*
Y7197D02*
D03*
Y7097D02*
D03*
X9807D02*
D03*
Y7197D02*
D03*
Y7297D02*
D03*
Y7397D02*
D03*
Y7497D02*
D03*
Y7597D02*
D03*
Y7697D02*
D03*
Y7797D02*
D03*
X9507D02*
D03*
X8757Y8067D02*
D03*
X8557D02*
D03*
X8757Y7972D02*
D03*
X8557D02*
D03*
X8647Y7797D02*
D03*
Y7597D02*
D03*
X8427Y7867D02*
D03*
Y7667D02*
D03*
X8842Y7802D02*
D03*
Y8202D02*
D03*
X8942Y7802D02*
D03*
Y8202D02*
D03*
X9042Y7802D02*
D03*
Y8202D02*
D03*
X8517Y7667D02*
D03*
Y7867D02*
D03*
X9782Y8147D02*
D03*
Y7947D02*
D03*
X9422Y6947D02*
D03*
Y7347D02*
D03*
X9342Y7447D02*
D03*
Y6947D02*
D03*
X9107Y6907D02*
D03*
Y6787D02*
D03*
X9262D02*
D03*
Y7187D02*
D03*
X10007Y6937D02*
D03*
X9607D02*
D03*
X8612Y7017D02*
D03*
X8732D02*
D03*
X8527Y7072D02*
D03*
Y6872D02*
D03*
D42*
X9802Y9207D02*
D03*
Y6787D02*
D03*
D45*
X9557D02*
D03*
D46*
X11587Y9207D02*
D03*
Y6787D02*
D03*
Y8052D02*
D03*
X10022Y9207D02*
D03*
Y6787D02*
D03*
X8422Y9207D02*
D03*
X9552D02*
D03*
X8422Y6787D02*
D03*
Y8052D02*
D03*
D49*
X9192Y8932D02*
D03*
X8712D02*
D03*
M02*
